<svg xmlns="http://www.w3.org/2000/svg" width="61.293" height="72.525" viewBox="0 0 61.293 72.525">
  <g id="ico" transform="translate(-13.116 -7)">
    <path id="Icon_ionic-md-notifications-outline" data-name="Icon ionic-md-notifications-outline" d="M43.937,19.62a25.251,25.251,0,0,1,4.162.78A17.746,17.746,0,0,1,61.626,37.788v22.22l1.623,1.631L64.6,63H22.919l1.355-1.363L25.9,60.008V37.788A17.748,17.748,0,0,1,39.425,20.4a30.944,30.944,0,0,1,4.162-.78M43.761,7a5.324,5.324,0,0,0-5.411,5.234c0,.067,0,.133,0,.2V14.97A23.476,23.476,0,0,0,20.327,37.788v19.92l-7.211,7.244v3.625H74.409V64.952L67.2,57.708V37.788A23.475,23.475,0,0,0,49.171,14.969V12.434A5.323,5.323,0,0,0,43.96,7c-.066,0-.131,0-.2,0ZM50.972,72.2H36.552a7.211,7.211,0,1,0,14.42.236C50.973,72.353,50.973,72.275,50.972,72.2Z" fill="#d4dab3"/>
    <g id="Layer_5" data-name="Layer 5">
      <circle id="타원_54" data-name="타원 54" cx="13.446" cy="13.446" r="13.446" transform="translate(30.75 29.92)" fill="#054438"/>
      <g id="그룹_163" data-name="그룹 163">
        <line id="선_124" data-name="선 124" x2="8.003" y2="8.003" transform="translate(40.194 39.364)" fill="none" stroke="#fff" stroke-linecap="round" stroke-linejoin="round" stroke-width="3"/>
        <line id="선_125" data-name="선 125" x1="8.003" y2="8.003" transform="translate(40.194 39.364)" fill="none" stroke="#fff" stroke-linecap="round" stroke-linejoin="round" stroke-width="3"/>
      </g>
    </g>
  </g>
</svg>
