<svg xmlns="http://www.w3.org/2000/svg" width="22.291" height="22.291" viewBox="0 0 22.291 22.291">
  <g id="Icon_ionic-ios-close-circle-outline" data-name="Icon ionic-ios-close-circle-outline" transform="translate(-3.375 -3.375)">
    <path id="패스_91" data-name="패스 91" d="M20.693,19.481l-2.824-2.824,2.824-2.824a.856.856,0,1,0-1.211-1.211l-2.824,2.824-2.824-2.824a.856.856,0,1,0-1.211,1.211l2.824,2.824-2.824,2.824a.828.828,0,0,0,0,1.211.851.851,0,0,0,1.211,0l2.824-2.824,2.824,2.824a.86.86,0,0,0,1.211,0A.851.851,0,0,0,20.693,19.481Z" transform="translate(-2.138 -2.136)" fill="#fff"/>
    <path id="패스_92" data-name="패스 92" d="M14.521,4.875A9.641,9.641,0,1,1,7.7,7.7a9.581,9.581,0,0,1,6.821-2.824m0-1.5A11.146,11.146,0,1,0,25.666,14.521,11.144,11.144,0,0,0,14.521,3.375Z" fill="#fff"/>
  </g>
</svg>
